<svg data-v-70b83f88="" version="1.0" xmlns="http://www.w3.org/2000/svg" xmlns:xlink="http://www.w3.org/1999/xlink" width="100%" height="100%" viewBox="0 0 340.000000 250.000000" preserveAspectRatio="xMidYMid meet" color-interpolation-filters="sRGB" style="margin: auto;"> <rect data-v-70b83f88="" x="0" y="0" width="100%" height="100%" fill="#333333" fill-opacity="1" class="background"></rect> <rect data-v-70b83f88="" x="0" y="0" width="100%" height="100%" fill="url(#watermark)" fill-opacity="1" class="watermarklayer"></rect> <g data-v-70b83f88="" fill="#eb001b" class="icon-text-wrapper icon-svg-group iconsvg" transform="translate(84.65499883890152,81.81041717529297)"><g class="iconsvg-imagesvg" transform="translate(55.345001220703125,0)"><g><rect fill="#eb001b" fill-opacity="0" stroke-width="2" x="0" y="0" width="60" height="42.47516972369902" class="image-rect"></rect> <g stroke="#F7F7EA" stroke-width="2.5" stroke-linecap="round" stroke-linejoin="round" paint-order="stroke" data-gra-attr="stroke" fill="#F7F7EA" fill-opacity="0" class="image-svg-svg"><svg x="0" y="0" width="60" height="42.47516972369902" style="overflow: visible;"><svg xmlns="http://www.w3.org/2000/svg" xmlns:xlink="http://www.w3.org/1999/xlink" version="1.1" x="0px" y="0px" viewBox="5 18.143999099731445 89.9990005493164 63.711997985839844" xml:space="preserve" style="overflow: visible;"><path d="M41.477,18.144H10.192C7.329,18.144,5,20.473,5,23.336v53.315c0,2.863,2.329,5.193,5.192,5.193h31.284  c2.863,0,5.192-2.33,5.192-5.193V23.336C46.669,20.473,44.34,18.144,41.477,18.144z M43.669,76.652c0,1.209-0.983,2.193-2.192,2.193  H10.192C8.983,78.845,8,77.861,8,76.652V23.336c0-1.209,0.983-2.193,2.192-2.193h31.284c1.209,0,2.192,0.984,2.192,2.193V76.652z"></path><path d="M25.835,49.006c-6.557,0-11.891,5.334-11.891,11.89s5.334,11.89,11.891,11.89c6.556,0,11.89-5.334,11.89-11.89  S32.391,49.006,25.835,49.006z M25.835,70.786c-5.454,0-9.891-4.437-9.891-9.89s4.437-9.89,9.891-9.89c5.453,0,9.89,4.437,9.89,9.89  S31.288,70.786,25.835,70.786z"></path><path d="M25.835,55.516c-2.967,0-5.381,2.414-5.381,5.38s2.414,5.38,5.381,5.38s5.38-2.414,5.38-5.38S28.802,55.516,25.835,55.516z   M25.835,65.276c-2.416,0-4.381-1.965-4.381-4.38s1.965-4.38,4.381-4.38c2.415,0,4.38,1.965,4.38,4.38S28.25,65.276,25.835,65.276z"></path><path d="M25.834,44.829c4.859,0,8.813-3.954,8.813-8.813c0-4.859-3.954-8.813-8.813-8.813s-8.813,3.954-8.813,8.813  C17.021,40.875,20.975,44.829,25.834,44.829z M25.834,29.202c3.757,0,6.813,3.056,6.813,6.813s-3.057,6.813-6.813,6.813  s-6.813-3.057-6.813-6.813S22.077,29.202,25.834,29.202z"></path><path d="M25.835,40.12c2.264,0,4.104-1.841,4.104-4.104s-1.841-4.104-4.104-4.104s-4.104,1.841-4.104,4.104  S23.571,40.12,25.835,40.12z M25.835,32.911c1.712,0,3.104,1.393,3.104,3.104c0,1.712-1.393,3.104-3.104,3.104  s-3.104-1.393-3.104-3.104C22.73,34.304,24.123,32.911,25.835,32.911z"></path><circle cx="12.276" cy="25.379" r="1.402"></circle><circle cx="39.321" cy="25.379" r="1.402"></circle><circle cx="12.348" cy="74.609" r="1.402"></circle><circle cx="39.393" cy="74.609" r="1.402"></circle><path d="M89.808,18.155H58.523c-2.863,0-5.192,2.33-5.192,5.193v53.315c0,2.863,2.329,5.193,5.192,5.193h31.284  c2.863,0,5.192-2.33,5.192-5.193V23.348C95,20.485,92.671,18.155,89.808,18.155z M92,76.664c0,1.209-0.983,2.193-2.192,2.193H58.523  c-1.209,0-2.192-0.984-2.192-2.193V23.348c0-1.209,0.983-2.193,2.192-2.193h31.284c1.209,0,2.192,0.984,2.192,2.193V76.664z"></path><path d="M74.165,49.018c-6.556,0-11.89,5.334-11.89,11.89s5.334,11.89,11.89,11.89c6.557,0,11.891-5.334,11.891-11.89  S80.722,49.018,74.165,49.018z M74.165,70.798c-5.453,0-9.89-4.437-9.89-9.89s4.437-9.89,9.89-9.89c5.454,0,9.891,4.437,9.891,9.89  S79.619,70.798,74.165,70.798z"></path><path d="M74.166,55.527c-2.967,0-5.381,2.414-5.381,5.38c0,2.966,2.414,5.38,5.381,5.38s5.38-2.414,5.38-5.38  C79.546,57.941,77.133,55.527,74.166,55.527z M74.166,65.288c-2.416,0-4.381-1.965-4.381-4.38c0-2.416,1.965-4.38,4.381-4.38  c2.415,0,4.38,1.965,4.38,4.38C78.546,63.323,76.581,65.288,74.166,65.288z"></path><path d="M74.165,44.84c4.859,0,8.813-3.954,8.813-8.813s-3.954-8.813-8.813-8.813s-8.813,3.954-8.813,8.813  S69.306,44.84,74.165,44.84z M74.165,29.214c3.757,0,6.813,3.056,6.813,6.813s-3.057,6.813-6.813,6.813s-6.813-3.056-6.813-6.813  S70.408,29.214,74.165,29.214z"></path><path d="M74.166,40.131c2.264,0,4.104-1.841,4.104-4.104s-1.841-4.104-4.104-4.104s-4.104,1.841-4.104,4.104  S71.902,40.131,74.166,40.131z M74.166,32.923c1.712,0,3.104,1.393,3.104,3.104c0,1.712-1.393,3.104-3.104,3.104  s-3.104-1.393-3.104-3.104C71.062,34.315,72.454,32.923,74.166,32.923z"></path><circle cx="60.607" cy="25.391" r="1.402"></circle><circle cx="87.652" cy="25.391" r="1.402"></circle><circle cx="60.679" cy="74.621" r="1.402"></circle><circle cx="87.724" cy="74.621" r="1.402"></circle></svg></svg></g> <defs><filter id="colors6605469220"><feColorMatrix type="matrix" values="0 0 0 0 0.96484375  0 0 0 0 0.96484375  0 0 0 0 0.9140625  0 0 0 1 0" class="icon-fecolormatrix"></feColorMatrix></filter> <filter id="colorsf9656058995"><feColorMatrix type="matrix" values="0 0 0 0 0.99609375  0 0 0 0 0.99609375  0 0 0 0 0.99609375  0 0 0 1 0" class="icon-fecolormatrix"></feColorMatrix></filter> <filter id="colorsb1581944778"><feColorMatrix type="matrix" values="0 0 0 0 0  0 0 0 0 0  0 0 0 0 0  0 0 0 1 0" class="icon-fecolormatrix"></feColorMatrix></filter></defs></g></g> <g transform="translate(0,49.47517013549805)"><g data-gra="path-name" fill-rule="" class="tp-name iconsvg-namesvg" transform="translate(0,0)"><g transform="scale(1)"><g><path d="M8.06-19.06L8.06-19.06Q9.47-19.06 10.73-18.51 11.98-17.97 12.91-17.04 13.83-16.12 14.38-14.88 14.92-13.64 14.92-12.22L14.92-12.22Q14.92-10.81 14.38-9.56 13.83-8.3 12.91-7.38 11.98-6.45 10.73-5.91 9.47-5.36 8.06-5.36L8.06-5.36 5.34-5.36 6.67-8.63 8.06-8.63Q9.53-8.63 10.59-9.69L10.59-9.69Q11.65-10.75 11.65-12.22L11.65-12.22Q11.65-13.72 10.59-14.73L10.59-14.73Q9.53-15.79 8.06-15.79L8.06-15.79 4.22-15.79 4.22 0 0.95 0 0.95-19.06 8.06-19.06ZM19.82-12.58L19.82-12.58Q20.58-13.2 21.55-13.61 22.52-14.02 23.74-14.02L23.74-14.02 23.74-10.75Q22.11-10.75 20.96-9.61L20.96-9.61Q19.82-8.41 19.82-6.83L19.82-6.83 19.82 0 16.55 0 16.55-6.83 16.55-13.64 19.82-13.64 19.82-12.58ZM30.96-10.73L30.96-10.73Q29.32-10.73 28.18-9.58L28.18-9.58Q27.04-8.44 27.04-6.81L27.04-6.81Q27.04-5.2 28.18-4.06L28.18-4.06Q28.72-3.48 29.45-3.2 30.17-2.91 30.96-2.91L30.96-2.91Q31.75-2.91 32.45-3.2 33.16-3.48 33.73-4.06L33.73-4.06Q34.88-5.2 34.88-6.81L34.88-6.81Q34.88-8.44 33.73-9.58L33.73-9.58Q32.54-10.73 30.96-10.73ZM30.96-13.99L30.96-13.99Q32.45-13.99 33.76-13.44 35.07-12.88 36.05-11.9 37.03-10.92 37.59-9.61 38.14-8.3 38.14-6.81L38.14-6.81Q38.14-5.34 37.59-4.03 37.03-2.72 36.05-1.74 35.07-0.76 33.76-0.2 32.45 0.35 30.96 0.35L30.96 0.35Q29.46 0.35 28.15-0.2 26.84-0.76 25.86-1.74 24.88-2.72 24.33-4.03 23.77-5.34 23.77-6.81L23.77-6.81Q23.77-8.3 24.33-9.61 24.88-10.92 25.86-11.9 26.84-12.88 28.15-13.44 29.46-13.99 30.96-13.99ZM50.31-19.09L53.58-19.09 53.58 0 50.31 0 50.31-6.81Q50.31-8.47 49.17-9.58L49.17-9.58Q48.03-10.73 46.42-10.73L46.42-10.73Q44.79-10.73 43.64-9.58L43.64-9.58Q42.5-8.44 42.5-6.81L42.5-6.81Q42.5-5.2 43.64-4.06L43.64-4.06Q44.19-3.48 44.91-3.2 45.63-2.91 46.42-2.91L46.42-2.91Q47.21-2.91 47.86-3.19L47.86-3.19 49.03-0.27Q47.78 0.35 46.15 0.35L46.15 0.35Q44.65 0.35 43.38-0.2 42.12-0.76 41.19-1.74 40.27-2.72 39.75-4.03 39.23-5.34 39.23-6.81L39.23-6.81Q39.23-8.3 39.75-9.61 40.27-10.92 41.19-11.9 42.12-12.88 43.38-13.44 44.65-13.99 46.15-13.99L46.15-13.99Q47.46-13.99 48.49-13.59 49.52-13.18 50.31-12.55L50.31-12.55 50.31-19.09ZM64.85-13.61L68.12-13.61 68.12 0 64.85 0 64.85-1.03Q64.12-0.41 63.19-0.01 62.27 0.38 61.12 0.38L61.12 0.38Q59.79 0.38 58.7-0.12 57.61-0.63 56.83-1.5 56.06-2.37 55.64-3.54 55.21-4.71 55.21-6.04L55.21-6.04 55.21-13.61 58.48-13.61 58.48-6.04Q58.48-4.76 59.43-3.81L59.43-3.81Q60.36-2.89 61.67-2.89L61.67-2.89Q63-2.89 63.93-3.81L63.93-3.81Q64.85-4.74 64.85-6.04L64.85-6.04 64.85-13.61ZM79.45-4.06L81.76-1.74Q80.78-0.76 79.47-0.2 78.17 0.35 76.67 0.35L76.67 0.35Q75.17 0.35 73.86-0.2 72.56-0.76 71.58-1.74 70.6-2.72 70.04-4.03 69.48-5.34 69.48-6.81L69.48-6.81Q69.48-8.3 70.04-9.61 70.6-10.92 71.58-11.9 72.56-12.88 73.86-13.44 75.17-13.99 76.67-13.99L76.67-13.99Q78.17-13.99 79.47-13.44 80.78-12.88 81.76-11.9L81.76-11.9 79.45-9.58Q78.3-10.73 76.67-10.73L76.67-10.73Q75.09-10.73 73.89-9.58L73.89-9.58Q72.75-8.44 72.75-6.81L72.75-6.81Q72.75-5.2 73.89-4.06L73.89-4.06Q74.46-3.48 75.17-3.2 75.88-2.91 76.67-2.91L76.67-2.91Q78.33-2.91 79.45-4.06L79.45-4.06ZM95.92-5.17L92.49-5.17 85.35-5.17Q85.63-4.55 86.14-4.06L86.14-4.06Q86.72-3.48 87.42-3.2 88.13-2.91 88.92-2.91L88.92-2.91Q90.04-2.91 90.91-3.43L90.91-3.43 94.31-2.07Q93.33-0.93 91.94-0.29 90.55 0.35 88.92 0.35L88.92 0.35Q87.42 0.35 86.12-0.2 84.81-0.76 83.83-1.74 82.85-2.72 82.29-4.03 81.73-5.34 81.73-6.81L81.73-6.81Q81.73-8.3 82.29-9.61 82.85-10.92 83.83-11.9 84.81-12.88 86.12-13.44 87.42-13.99 88.92-13.99L88.92-13.99Q90.42-13.99 91.72-13.44 93.03-12.88 94.01-11.9 94.99-10.92 95.55-9.61 96.11-8.3 96.11-6.81L96.11-6.81Q96.11-5.94 95.92-5.17L95.92-5.17ZM88.92-10.73L88.92-10.73Q87.34-10.73 86.14-9.58L86.14-9.58Q85.63-9.07 85.35-8.44L85.35-8.44 92.49-8.44Q92.21-9.07 91.7-9.58L91.7-9.58Q90.55-10.73 88.92-10.73ZM100.87-12.58L100.87-12.58Q101.64-13.2 102.6-13.61 103.57-14.02 104.79-14.02L104.79-14.02 104.79-10.75Q103.16-10.75 102.02-9.61L102.02-9.61Q100.87-8.41 100.87-6.83L100.87-6.83 100.87 0 97.61 0 97.61-6.83 97.61-13.64 100.87-13.64 100.87-12.58Z" transform="translate(-0.9500000476837158, 19.469999313354492)"></path></g> <!----> <!----> <!----> <!----> <!----> <!----> <g data-gra="path-name-1" fill="#F7F7EA" transform="translate(106.84000396728516,0)"><g transform="scale(1)"><path d="M14.38-5.45L14.38-5.45Q14.38-4.11 13.94-3.04 13.5-1.96 12.7-1.21 11.9-0.46 10.75-0.05 9.61 0.35 8.2 0.35L8.2 0.35Q5.94 0.35 4.17-0.37 2.4-1.09 1.25-2.01L1.25-2.01 3.51-4.27Q4.41-3.46 5.53-3.02L5.53-3.02Q6.21-2.75 6.81-2.67 7.41-2.59 7.79-2.59L7.79-2.59Q8.49-2.59 9.08-2.76 9.67-2.94 10.1-3.24L10.1-3.24Q11.03-3.92 11.03-5.04L11.03-5.04Q11.03-5.72 10.54-6.26L10.54-6.26Q10.16-6.7 9.56-6.97L9.56-6.97Q9.07-7.24 8.52-7.41 7.98-7.57 7.54-7.7L7.54-7.7Q7.41-7.76 7.3-7.77 7.19-7.79 7.11-7.84L7.11-7.84Q7.05-7.84 6.94-7.9L6.94-7.9Q6.37-8.06 5.3-8.47 4.22-8.88 3.16-9.58L3.16-9.58Q0.68-11.24 0.68-13.67L0.68-13.67Q0.68-15.27 1.24-16.38 1.8-17.48 2.7-18.17 3.59-18.87 4.7-19.17 5.8-19.47 6.86-19.47L6.86-19.47Q8.82-19.47 10.16-19 11.49-18.54 12.28-18.08L12.28-18.08Q12.69-17.83 12.97-17.6 13.26-17.37 13.48-17.18L13.48-17.18 11.16-14.84Q10.43-15.57 9.67-15.95L9.67-15.95Q8.52-16.5 7.27-16.5L7.27-16.5Q6.72-16.5 6.18-16.36 5.64-16.23 5.23-16.01L5.23-16.01Q4.03-15.27 4.03-14.08L4.03-14.08Q4.03-13.34 4.52-12.82L4.52-12.82Q4.87-12.42 5.5-12.09L5.5-12.09Q6.02-11.82 6.59-11.65 7.16-11.49 7.65-11.35L7.65-11.35 7.98-11.27Q8.11-11.22 8.49-11.11 8.88-11 9.39-10.78 9.91-10.56 10.52-10.26 11.14-9.96 11.73-9.56L11.73-9.56Q14.38-7.81 14.38-5.45ZM22.38-3.27L23.2 0 20.2 0Q19.28 0 18.46-0.35 17.64-0.71 17.04-1.32 16.44-1.93 16.09-2.75 15.74-3.57 15.74-4.49L15.74-4.49 15.74-16.36 19-17.18 19-11.98 20.91-11.98 21.73-8.71 19-8.71 19-4.49Q19-3.98 19.36-3.62 19.71-3.27 20.2-3.27L20.2-3.27 22.38-3.27ZM34.14-13.64L37.41-13.64 37.41 0 34.14 0 34.14-6.81Q34.14-8.44 33-9.58L33-9.58Q31.85-10.73 30.22-10.73L30.22-10.73Q29.43-10.73 28.71-10.43 27.99-10.13 27.44-9.58L27.44-9.58Q26.3-8.44 26.3-6.81L26.3-6.81Q26.3-5.2 27.44-4.06L27.44-4.06Q27.99-3.48 28.71-3.2 29.43-2.91 30.22-2.91L30.22-2.91Q31.04-2.91 31.69-3.19L31.69-3.19 32.86-0.27Q31.61 0.35 29.95 0.35L29.95 0.35Q28.45 0.35 27.19-0.2 25.92-0.76 24.99-1.74 24.07-2.72 23.55-4.03 23.03-5.34 23.03-6.81L23.03-6.81Q23.03-8.3 23.55-9.61 24.07-10.92 24.99-11.9 25.92-12.88 27.19-13.44 28.45-13.99 29.95-13.99L29.95-13.99Q31.28-13.99 32.32-13.59 33.35-13.18 34.14-12.55L34.14-12.55 34.14-13.64ZM48.87-4.06L51.19-1.74Q50.2-0.76 48.9-0.2 47.59 0.35 46.09 0.35L46.09 0.35Q44.6 0.35 43.29-0.2 41.98-0.76 41-1.74 40.02-2.72 39.46-4.03 38.91-5.34 38.91-6.81L38.91-6.81Q38.91-8.3 39.46-9.61 40.02-10.92 41-11.9 41.98-12.88 43.29-13.44 44.6-13.99 46.09-13.99L46.09-13.99Q47.59-13.99 48.9-13.44 50.2-12.88 51.19-11.9L51.19-11.9 48.87-9.58Q47.73-10.73 46.09-10.73L46.09-10.73Q44.51-10.73 43.32-9.58L43.32-9.58Q42.17-8.44 42.17-6.81L42.17-6.81Q42.17-5.2 43.32-4.06L43.32-4.06Q43.89-3.48 44.6-3.2 45.3-2.91 46.09-2.91L46.09-2.91Q47.75-2.91 48.87-4.06L48.87-4.06ZM64.53-13.61L64.53-13.61 57.72-6.81 64.53 0 59.92 0 55.41-4.52 55.41 0 52.14 0 52.14-19.06 55.41-19.06 55.41-9.12 59.9-13.61 64.53-13.61Z" transform="translate(-0.6800000071525574, 19.469999313354492)"></path></g></g></g></g> <g data-gra="path-slogan" fill-rule="" class="tp-slogan iconsvg-slogansvg" fill="#eb001b" transform="translate(5,25.849998474121094)"><rect x="0" height="1" y="5.025000095367432" width="21.820003509521484"></rect> <rect height="1" y="5.025000095367432" width="21.820003509521484" x="138.86999893188477"></rect> <g transform="translate(24.820003509521484,0)"><g transform="scale(1)"><path d="M1.08 0L1.08-7.87L3.49-7.87Q4.14-7.87 4.68-7.75Q5.22-7.63 5.60-7.36Q5.98-7.09 6.19-6.65Q6.40-6.20 6.40-5.56L6.40-5.56Q6.40-4.93 6.19-4.48Q5.98-4.02 5.59-3.72Q5.21-3.42 4.67-3.27Q4.14-3.12 3.49-3.12L3.49-3.12L2.08-3.12L2.08 0L1.08 0ZM2.08-3.94L3.37-3.94Q4.40-3.94 4.90-4.33Q5.40-4.72 5.40-5.56L5.40-5.56Q5.40-6.41 4.90-6.74Q4.39-7.07 3.37-7.07L3.37-7.07L2.08-7.07L2.08-3.94ZM7.90 0L7.90-5.83L8.71-5.83L8.80-4.78L8.83-4.78Q9.13-5.33 9.56-5.65Q9.98-5.98 10.49-5.98L10.49-5.98Q10.84-5.98 11.11-5.86L11.11-5.86L10.92-4.99Q10.78-5.04 10.66-5.06Q10.54-5.09 10.36-5.09L10.36-5.09Q9.98-5.09 9.58-4.79Q9.18-4.49 8.88-3.74L8.88-3.74L8.88 0L7.90 0ZM11.51-2.90L11.51-2.90Q11.51-3.64 11.73-4.21Q11.95-4.78 12.32-5.17Q12.70-5.57 13.18-5.77Q13.67-5.98 14.21-5.98L14.21-5.98Q14.75-5.98 15.23-5.77Q15.72-5.57 16.09-5.17Q16.46-4.78 16.69-4.21Q16.91-3.64 16.91-2.90L16.91-2.90Q16.91-2.18 16.69-1.61Q16.46-1.04 16.09-0.65Q15.72-0.26 15.23-0.06Q14.75 0.14 14.21 0.14L14.21 0.14Q13.67 0.14 13.18-0.06Q12.70-0.26 12.32-0.65Q11.95-1.04 11.73-1.61Q11.51-2.18 11.51-2.90ZM12.53-2.90L12.53-2.90Q12.53-2.40 12.65-1.99Q12.77-1.58 12.99-1.29Q13.21-1.00 13.52-0.83Q13.84-0.67 14.21-0.67L14.21-0.67Q14.58-0.67 14.89-0.83Q15.20-1.00 15.43-1.29Q15.65-1.58 15.77-1.99Q15.89-2.40 15.89-2.90L15.89-2.90Q15.89-3.41 15.77-3.82Q15.65-4.24 15.43-4.54Q15.20-4.84 14.89-5.00Q14.58-5.16 14.21-5.16L14.21-5.16Q13.84-5.16 13.52-5.00Q13.21-4.84 12.99-4.54Q12.77-4.24 12.65-3.82Q12.53-3.41 12.53-2.90ZM18.02-2.90L18.02-2.90Q18.02-3.61 18.23-4.18Q18.44-4.75 18.79-5.15Q19.14-5.54 19.60-5.76Q20.05-5.98 20.56-5.98L20.56-5.98Q21.06-5.98 21.43-5.80Q21.80-5.62 22.19-5.30L22.19-5.30L22.14-6.30L22.14-8.54L23.14-8.54L23.14 0L22.32 0L22.24-0.68L22.20-0.68Q21.85-0.35 21.40-0.10Q20.95 0.14 20.44 0.14L20.44 0.14Q19.33 0.14 18.68-0.65Q18.02-1.44 18.02-2.90ZM19.04-2.92L19.04-2.92Q19.04-1.86 19.46-1.27Q19.88-0.68 20.65-0.68L20.65-0.68Q21.06-0.68 21.42-0.88Q21.78-1.08 22.14-1.49L22.14-1.49L22.14-4.54Q21.77-4.87 21.43-5.01Q21.08-5.15 20.72-5.15L20.72-5.15Q20.38-5.15 20.07-4.99Q19.76-4.82 19.54-4.53Q19.31-4.24 19.18-3.83Q19.04-3.42 19.04-2.92ZM25.02-2.14L25.02-5.83L26.02-5.83L26.02-2.27Q26.02-1.44 26.27-1.07Q26.53-0.71 27.11-0.71L27.11-0.71Q27.56-0.71 27.91-0.94Q28.26-1.18 28.68-1.69L28.68-1.69L28.68-5.83L29.66-5.83L29.66 0L28.85 0L28.76-0.91L28.73-0.91Q28.32-0.43 27.87-0.14Q27.42 0.14 26.81 0.14L26.81 0.14Q25.87 0.14 25.45-0.43Q25.02-1.01 25.02-2.14L25.02-2.14ZM31.20-2.90L31.20-2.90Q31.20-3.64 31.43-4.21Q31.66-4.78 32.04-5.17Q32.42-5.57 32.93-5.77Q33.44-5.98 34.01-5.98L34.01-5.98Q34.58-5.98 35.00-5.77Q35.41-5.56 35.71-5.28L35.71-5.28L35.22-4.64Q34.96-4.87 34.67-5.02Q34.39-5.16 34.04-5.16L34.04-5.16Q33.65-5.16 33.31-5.00Q32.98-4.84 32.74-4.54Q32.50-4.24 32.36-3.82Q32.22-3.41 32.22-2.90L32.22-2.90Q32.22-2.40 32.35-1.99Q32.48-1.58 32.72-1.29Q32.95-1.00 33.29-0.83Q33.62-0.67 34.02-0.67L34.02-0.67Q34.44-0.67 34.78-0.85Q35.12-1.02 35.39-1.26L35.39-1.26L35.83-0.61Q35.44-0.26 34.95-0.06Q34.46 0.14 33.94 0.14L33.94 0.14Q33.36 0.14 32.86-0.06Q32.35-0.26 31.99-0.65Q31.62-1.04 31.41-1.61Q31.20-2.18 31.20-2.90ZM36.42-2.90L36.42-2.90Q36.42-3.62 36.64-4.19Q36.86-4.76 37.23-5.16Q37.60-5.56 38.06-5.77Q38.53-5.98 39.04-5.98L39.04-5.98Q39.59-5.98 40.03-5.78Q40.46-5.59 40.76-5.23Q41.05-4.87 41.21-4.37Q41.36-3.86 41.36-3.24L41.36-3.24Q41.36-2.92 41.33-2.70L41.33-2.70L37.39-2.70Q37.45-1.75 37.97-1.20Q38.50-0.65 39.34-0.65L39.34-0.65Q39.76-0.65 40.11-0.77Q40.46-0.90 40.79-1.10L40.79-1.10L41.14-0.46Q40.75-0.22 40.28-0.04Q39.82 0.14 39.22 0.14L39.22 0.14Q38.63 0.14 38.12-0.07Q37.61-0.28 37.23-0.67Q36.85-1.06 36.64-1.62Q36.42-2.18 36.42-2.90ZM37.38-3.35L40.50-3.35Q40.50-4.25 40.12-4.72Q39.74-5.20 39.06-5.20L39.06-5.20Q38.75-5.20 38.47-5.07Q38.18-4.94 37.96-4.71Q37.73-4.48 37.58-4.13Q37.43-3.79 37.38-3.35L37.38-3.35ZM42.80 0L42.80-5.83L43.62-5.83L43.70-4.78L43.74-4.78Q44.04-5.33 44.47-5.65Q44.89-5.98 45.40-5.98L45.40-5.98Q45.74-5.98 46.02-5.86L46.02-5.86L45.83-4.99Q45.68-5.04 45.56-5.06Q45.44-5.09 45.26-5.09L45.26-5.09Q44.89-5.09 44.49-4.79Q44.09-4.49 43.79-3.74L43.79-3.74L43.79 0L42.80 0ZM46.20-0.66L46.69-1.32Q47.08-1.01 47.48-0.82Q47.88-0.62 48.41-0.62L48.41-0.62Q48.98-0.62 49.27-0.89Q49.56-1.15 49.56-1.54L49.56-1.54Q49.56-1.76 49.44-1.93Q49.32-2.10 49.13-2.23Q48.95-2.35 48.71-2.45Q48.47-2.54 48.23-2.64L48.23-2.64Q47.92-2.75 47.60-2.89Q47.29-3.02 47.05-3.22Q46.80-3.42 46.64-3.68Q46.49-3.95 46.49-4.32L46.49-4.32Q46.49-4.67 46.63-4.97Q46.76-5.28 47.02-5.50Q47.28-5.72 47.65-5.85Q48.02-5.98 48.49-5.98L48.49-5.98Q49.04-5.98 49.51-5.78Q49.97-5.59 50.30-5.32L50.30-5.32L49.84-4.69Q49.54-4.92 49.21-5.06Q48.89-5.21 48.50-5.21L48.50-5.21Q47.95-5.21 47.69-4.96Q47.44-4.70 47.44-4.37L47.44-4.37Q47.44-4.16 47.54-4.01Q47.65-3.86 47.83-3.75Q48.01-3.64 48.25-3.55Q48.48-3.46 48.73-3.36L48.73-3.36Q49.04-3.24 49.36-3.11Q49.68-2.98 49.93-2.78Q50.18-2.58 50.35-2.29Q50.51-2.00 50.51-1.60L50.51-1.60Q50.51-1.24 50.37-0.92Q50.23-0.61 49.96-0.37Q49.69-0.13 49.29 0.01Q48.89 0.14 48.37 0.14L48.37 0.14Q47.75 0.14 47.18-0.08Q46.62-0.31 46.20-0.66L46.20-0.66ZM53.94-3.94L53.94-3.94Q53.94-4.88 54.20-5.64Q54.47-6.40 54.94-6.92Q55.40-7.45 56.05-7.73Q56.69-8.02 57.44-8.02L57.44-8.02Q58.16-8.02 58.70-7.72Q59.24-7.43 59.59-7.04L59.59-7.04L59.03-6.41Q58.72-6.74 58.34-6.94Q57.96-7.14 57.46-7.14L57.46-7.14Q56.89-7.14 56.44-6.92Q55.98-6.70 55.66-6.28Q55.33-5.87 55.15-5.28Q54.97-4.69 54.97-3.96L54.97-3.96Q54.97-3.22 55.15-2.62Q55.32-2.03 55.63-1.61Q55.94-1.19 56.39-0.96Q56.84-0.73 57.41-0.73L57.41-0.73Q57.98-0.73 58.41-0.96Q58.84-1.19 59.22-1.61L59.22-1.61L59.78-1.00Q59.32-0.46 58.73-0.16Q58.14 0.14 57.38 0.14L57.38 0.14Q56.64 0.14 56.01-0.13Q55.38-0.41 54.92-0.93Q54.46-1.45 54.20-2.21Q53.94-2.98 53.94-3.94ZM60.72-2.90L60.72-2.90Q60.72-3.64 60.94-4.21Q61.16-4.78 61.54-5.17Q61.91-5.57 62.39-5.77Q62.88-5.98 63.42-5.98L63.42-5.98Q63.96-5.98 64.45-5.77Q64.93-5.57 65.30-5.17Q65.68-4.78 65.90-4.21Q66.12-3.64 66.12-2.90L66.12-2.90Q66.12-2.18 65.90-1.61Q65.68-1.04 65.30-0.65Q64.93-0.26 64.45-0.06Q63.96 0.14 63.42 0.14L63.42 0.14Q62.88 0.14 62.39-0.06Q61.91-0.26 61.54-0.65Q61.16-1.04 60.94-1.61Q60.72-2.18 60.72-2.90ZM61.74-2.90L61.74-2.90Q61.74-2.40 61.86-1.99Q61.98-1.58 62.20-1.29Q62.42-1.00 62.74-0.83Q63.05-0.67 63.42-0.67L63.42-0.67Q63.79-0.67 64.10-0.83Q64.42-1.00 64.64-1.29Q64.86-1.58 64.98-1.99Q65.10-2.40 65.10-2.90L65.10-2.90Q65.10-3.41 64.98-3.82Q64.86-4.24 64.64-4.54Q64.42-4.84 64.10-5.00Q63.79-5.16 63.42-5.16L63.42-5.16Q63.05-5.16 62.74-5.00Q62.42-4.84 62.20-4.54Q61.98-4.24 61.86-3.82Q61.74-3.41 61.74-2.90ZM67.66 0L67.66-5.83L68.47-5.83L68.56-4.99L68.59-4.99Q68.98-5.41 69.43-5.69Q69.88-5.98 70.40-5.98L70.40-5.98Q71.08-5.98 71.45-5.68Q71.83-5.39 72.01-4.86L72.01-4.86Q72.47-5.36 72.93-5.67Q73.39-5.98 73.93-5.98L73.93-5.98Q74.83-5.98 75.27-5.40Q75.71-4.82 75.71-3.70L75.71-3.70L75.71 0L74.72 0L74.72-3.56Q74.72-4.39 74.46-4.76Q74.20-5.12 73.64-5.12L73.64-5.12Q72.98-5.12 72.18-4.22L72.18-4.22L72.18 0L71.20 0L71.20-3.56Q71.20-4.39 70.93-4.76Q70.67-5.12 70.10-5.12L70.10-5.12Q69.44-5.12 68.64-4.22L68.64-4.22L68.64 0L67.66 0ZM77.60 0L77.60-5.83L78.42-5.83L78.50-4.99L78.54-4.99Q78.92-5.41 79.37-5.69Q79.82-5.98 80.35-5.98L80.35-5.98Q81.02-5.98 81.40-5.68Q81.78-5.39 81.96-4.86L81.96-4.86Q82.42-5.36 82.88-5.67Q83.34-5.98 83.88-5.98L83.88-5.98Q84.78-5.98 85.22-5.40Q85.66-4.82 85.66-3.70L85.66-3.70L85.66 0L84.67 0L84.67-3.56Q84.67-4.39 84.41-4.76Q84.14-5.12 83.59-5.12L83.59-5.12Q82.93-5.12 82.13-4.22L82.13-4.22L82.13 0L81.14 0L81.14-3.56Q81.14-4.39 80.88-4.76Q80.62-5.12 80.05-5.12L80.05-5.12Q79.39-5.12 78.59-4.22L78.59-4.22L78.59 0L77.60 0ZM87.47-2.14L87.47-5.83L88.46-5.83L88.46-2.27Q88.46-1.44 88.72-1.07Q88.98-0.71 89.56-0.71L89.56-0.71Q90.01-0.71 90.36-0.94Q90.71-1.18 91.13-1.69L91.13-1.69L91.13-5.83L92.11-5.83L92.11 0L91.30 0L91.21-0.91L91.18-0.91Q90.77-0.43 90.32-0.14Q89.87 0.14 89.26 0.14L89.26 0.14Q88.32 0.14 87.89-0.43Q87.47-1.01 87.47-2.14L87.47-2.14ZM94.08 0L94.08-5.83L94.90-5.83L94.98-4.99L95.02-4.99Q95.44-5.41 95.90-5.69Q96.36-5.98 96.97-5.98L96.97-5.98Q97.90-5.98 98.32-5.40Q98.75-4.82 98.75-3.70L98.75-3.70L98.75 0L97.76 0L97.76-3.56Q97.76-4.39 97.50-4.76Q97.24-5.12 96.66-5.12L96.66-5.12Q96.20-5.12 95.86-4.90Q95.51-4.67 95.06-4.22L95.06-4.22L95.06 0L94.08 0ZM101.15-7.03L101.15-7.03Q100.86-7.03 100.66-7.21Q100.46-7.39 100.46-7.67L100.46-7.67Q100.46-7.96 100.66-8.13Q100.86-8.30 101.15-8.30L101.15-8.30Q101.44-8.30 101.63-8.13Q101.83-7.96 101.83-7.67L101.83-7.67Q101.83-7.39 101.63-7.21Q101.44-7.03 101.15-7.03ZM100.64 0L100.64-5.83L101.63-5.83L101.63 0L100.64 0ZM103.76-1.80L103.76-5.03L102.90-5.03L102.90-5.77L103.81-5.83L103.93-7.46L104.76-7.46L104.76-5.83L106.33-5.83L106.33-5.03L104.76-5.03L104.76-1.79Q104.76-1.25 104.96-0.95Q105.16-0.66 105.66-0.66L105.66-0.66Q105.82-0.66 106.00-0.71Q106.18-0.76 106.32-0.82L106.32-0.82L106.51-0.07Q106.27 0.01 105.99 0.08Q105.71 0.14 105.43 0.14L105.43 0.14Q104.96 0.14 104.65 0Q104.33-0.14 104.13-0.40Q103.93-0.65 103.85-1.01Q103.76-1.37 103.76-1.80L103.76-1.80ZM107.26 1.61L107.26 1.61Q107.35 1.63 107.47 1.66Q107.59 1.69 107.70 1.69L107.70 1.69Q108.20 1.69 108.52 1.34Q108.84 0.98 109.02 0.44L109.02 0.44L109.15 0.01L106.81-5.83L107.83-5.83L109.02-2.60Q109.15-2.22 109.30-1.79Q109.45-1.37 109.58-0.96L109.58-0.96L109.63-0.96Q109.76-1.36 109.88-1.79Q110.00-2.22 110.12-2.60L110.12-2.60L111.17-5.83L112.13-5.83L109.93 0.48Q109.78 0.91 109.58 1.28Q109.39 1.66 109.13 1.93Q108.86 2.20 108.53 2.35Q108.19 2.51 107.75 2.51L107.75 2.51Q107.54 2.51 107.38 2.48Q107.21 2.45 107.06 2.39L107.06 2.39L107.26 1.61Z" transform="translate(-1.08, 8.544)"></path></g></g></g></g></g><defs v-gra="od"></defs></svg>